<?xml version="1.0" encoding="UTF-8"?>
<svg width="640px" height="320px" viewBox="0 0 640 320" version="1.1" xmlns="http://www.w3.org/2000/svg" xmlns:xlink="http://www.w3.org/1999/xlink">
    <!-- Generator: Sketch 60.1 (88133) - https://sketch.com -->
    <title>ListingslabToolKit</title>
    <desc>Created with Sketch.</desc>
    <defs>
        <linearGradient x1="50%" y1="0%" x2="50%" y2="100%" id="linearGradient-1">
            <stop stop-color="#18A3AE" offset="0%"></stop>
            <stop stop-color="#126A71" offset="100%"></stop>
        </linearGradient>
    </defs>
    <g id="Page-1" stroke="none" stroke-width="1" fill="none" fill-rule="evenodd">
        <g id="ListingslabToolKit">
            <rect id="greenscreen" fill="#2AD354" fill-rule="nonzero" x="0" y="0" width="640" height="320"></rect>
            <rect id="transparant" fill-opacity="0.01" fill="#FFFFFF" fill-rule="nonzero" x="0" y="0" width="640" height="320"></rect>
            <g id="Blokey" transform="translate(56.000000, 154.000000)" fill="#000000" fill-rule="nonzero">
                <ellipse id="Oval" cx="48" cy="12.5" rx="12" ry="12.5"></ellipse>
                <path d="M71.9504889,37.5765 C69.5904644,35.178 65.5360636,30.75 57.6693153,30.75 C56.398533,30.75 49.0764059,30.75 42.2988995,30.75 C25.6577016,30.6885 12.1026894,16.9125 12.1026894,0 L0,0 C0,19.434 12.7683374,35.916 30.2567238,41.2665 L30.2567238,123 L42.3594132,123 L42.3594132,86.1 L54.4621027,86.1 L54.4621027,123 L66.5647921,123 L66.5647921,49.5075 L90.4676037,73.8 L99,65.1285 L71.9504889,37.5765 Z" id="Path"></path>
            </g>
            <g id="listingslab-Icon" transform="translate(16.000000, 13.000000)" fill-rule="nonzero">
                <path d="M22.8346025,0 L57.1653976,0 C65.1054864,0 67.9847544,0.8267281 70.887532,2.37915064 C73.79031,3.93157319 76.0684268,6.20969016 77.6208492,9.11246796 C79.173272,12.0152457 80,14.8945138 80,22.8346025 L80,57.1653976 C80,65.1054864 79.173272,67.9847544 77.6208492,70.887532 C76.0684268,73.79031 73.79031,76.0684268 70.887532,77.6208492 C67.9847544,79.173272 65.1054864,80 57.1653976,80 L22.8346025,80 C14.8945138,80 12.0152457,79.173272 9.11246796,77.6208492 C6.20969016,76.0684268 3.93157319,73.79031 2.37915064,70.887532 C0.8267281,67.9847544 0,65.1054864 0,57.1653976 L0,22.8346025 C0,14.8945138 0.8267281,12.0152457 2.37915064,9.11246796 C3.93157319,6.20969016 6.20969016,3.93157319 9.11246796,2.37915064 C12.0152457,0.8267281 14.8945138,0 22.8346025,0 Z" id="blue" fill="url(#linearGradient-1)"></path>
                <g id="Blokey" transform="translate(16.000000, 13.000000)" fill="#FFFFFF">
                    <ellipse id="Oval" cx="23.2307692" cy="5.91852169" rx="5.84615385" ry="5.91852169"></ellipse>
                    <path d="M34.549652,17.9859202 C33.4164001,16.8378827 31.4695317,14.7184289 27.6920255,14.7184289 C27.0818131,14.7184289 23.5658266,14.7184289 20.3113597,14.7184289 C12.3204814,14.6889921 5.81154784,8.09513593 5.81154784,0 L0,0 C0,9.30204709 6.13118299,17.191125 14.5288697,19.7521316 L14.5288697,58.8737158 L20.3404175,58.8737158 L20.3404175,41.211601 L26.1519654,41.211601 L26.1519654,58.8737158 L31.9635132,58.8737158 L31.9635132,23.6966706 L43.4413202,35.3242295 L47.5384615,31.1736325 L34.549652,17.9859202 Z" id="Path"></path>
                </g>
            </g>
            <g id="wordpress-logo" transform="translate(474.000000, 53.000000)" fill="#000000" fill-rule="nonzero">
                <path d="M16.78125,50.4375 L48.5,137.3125 C26.3125,126.5625 11.03125,103.8125 11.03125,77.5 C11.03125,67.84375 13.09375,58.71875 16.78125,50.4375 Z M122.375,74.15625 C122.375,65.9375 119.4375,60.25 116.90625,55.8125 C113.53125,50.34375 110.375,45.6875 110.375,40.21875 C110.375,34.09375 115,28.40625 121.53125,28.40625 C121.8125,28.40625 122.09375,28.4375 122.40625,28.46875 C110.5625,17.625 94.8125,11 77.5,11 C54.28125,11 33.84375,22.90625 21.9375,40.96875 C23.5,41.03125 24.96875,41.0625 26.21875,41.0625 C33.15625,41.0625 43.9375,40.21875 43.9375,40.21875 C47.53125,40 47.9375,45.28125 44.375,45.6875 C44.375,45.6875 40.78125,46.09375 36.78125,46.3125 L61,118.3125 L75.5625,74.6875 L65.21875,46.3125 C61.625,46.09375 58.25,45.6875 58.25,45.6875 C54.65625,45.46875 55.09375,40 58.65625,40.21875 C58.65625,40.21875 69.625,41.0625 76.15625,41.0625 C83.09375,41.0625 93.875,40.21875 93.875,40.21875 C97.46875,40 97.875,45.28125 94.3125,45.6875 C94.3125,45.6875 90.71875,46.09375 86.71875,46.3125 L110.75,117.78125 L117.375,95.625 C120.1875,86.4375 122.375,79.84375 122.375,74.15625 Z M78.65625,83.3125 L58.71875,141.28125 C64.6875,143.03125 70.96875,144 77.5,144 C85.25,144 92.65625,142.65625 99.5625,140.21875 C99.375,139.9375 99.21875,139.625 99.09375,139.3125 L78.65625,83.3125 Z M135.84375,45.59375 C136.125,47.71875 136.28125,49.96875 136.28125,52.4375 C136.28125,59.1875 135.03125,66.75 131.21875,76.25 L110.90625,134.96875 C130.6875,123.4375 143.96875,102.03125 143.96875,77.5 C143.96875,65.9375 141.03125,55.0625 135.84375,45.59375 L135.84375,45.59375 Z M155,77.5 C155,120.25 120.21875,155 77.5,155 C34.75,155 0,120.21875 0,77.5 C0,34.75 34.75,0 77.5,0 C120.21875,0 155,34.75 155,77.5 Z M151.4375,77.5 C151.4375,36.71875 118.25,3.5625 77.5,3.5625 C36.71875,3.5625 3.5625,36.71875 3.5625,77.5 C3.5625,118.28125 36.75,151.4375 77.5,151.4375 C118.28125,151.4375 151.4375,118.28125 151.4375,77.5 Z" id="Shape"></path>
            </g>
            <text id="Listingslab" font-family="Roboto-Regular, Roboto" font-size="48" font-weight="normal" fill="#126A71">
                <tspan x="187" y="110">Listingslab</tspan>
            </text>
            <text id="ToolKit" font-family="Roboto-Regular, Roboto" font-size="48" font-weight="normal" fill="#126A71">
                <tspan x="187" y="170">ToolKit</tspan>
            </text>
            <text id="for-WordPress" font-family="Roboto-Regular, Roboto" font-size="48" font-weight="normal" fill="#126A71">
                <tspan x="187" y="240">for WordPress</tspan>
            </text>
        </g>
    </g>
</svg>